<svg width="247" height="130" viewBox="0 0 247 130" fill="none" xmlns="http://www.w3.org/2000/svg">
<path d="M33.8617 43.3467C27.9003 43.3467 23.0508 48.1962 23.0508 54.1576V69.7546C23.0508 82.8037 25.6055 93.7203 31.0888 104.109L44.6726 129.834V54.1576C44.6726 48.1962 39.8231 43.3467 33.8617 43.3467Z" fill="#0B0B0B"/>
<path d="M224.855 54.1576C224.855 48.1962 220.006 43.3467 214.044 43.3467C208.083 43.3467 203.233 48.1962 203.233 54.1576V129.834L216.817 104.109C222.3 93.7203 224.855 82.8037 224.855 69.7546V54.1576Z" fill="#0B0B0B"/>
<path d="M80.7092 54.1576C80.7092 48.1866 75.8688 43.3467 69.8983 43.3467C63.9278 43.3467 59.0874 48.1866 59.0874 54.1576V86.5904H80.7092V54.1576Z" fill="#0B0B0B"/>
<path d="M116.746 54.1576C116.746 48.1866 111.905 43.3467 105.935 43.3467C99.9644 43.3467 95.124 48.1866 95.124 54.1576V86.5904H116.746V54.1576Z" fill="#0B0B0B"/>
<path d="M152.782 54.1576C152.782 48.1866 147.942 43.3467 141.971 43.3467C136.001 43.3467 131.16 48.1866 131.16 54.1576V86.5904H152.782V54.1576Z" fill="#0B0B0B"/>
<path d="M188.819 54.1576C188.819 48.1866 183.978 43.3467 178.008 43.3467C172.037 43.3467 167.197 48.1866 167.197 54.1576V86.5904H188.819V54.1576Z" fill="#0B0B0B"/>
<path d="M0.94873 43.3462C0.94873 52.1689 4.10023 60.3564 8.6365 67.1966V54.1572C8.6365 40.2495 19.9543 28.9317 33.862 28.9317C40.9232 28.9317 47.2963 31.8674 51.8802 36.5594C56.464 31.8674 62.8372 28.9317 69.8984 28.9317C76.9596 28.9317 83.3328 31.8674 87.9166 36.5594C92.5004 31.8674 98.8736 28.9317 105.935 28.9317C112.996 28.9317 119.369 31.8674 123.953 36.5594C128.537 31.8674 134.91 28.9317 141.971 28.9317C149.032 28.9317 155.406 31.8674 159.989 36.5594C164.573 31.8674 170.946 28.9317 178.008 28.9317C185.069 28.9317 191.442 31.8674 196.026 36.5594C200.61 31.8674 206.983 28.9317 214.044 28.9317C227.952 28.9317 239.269 40.2495 239.269 54.1572V67.1966C243.806 60.3564 246.957 52.1689 246.957 43.3462V0.102539H0.94873V43.3462Z" fill="#0B0B0B"/>
</svg>
